<svg width="100" height="89" viewBox="0 0 100 89" fill="none" xmlns="http://www.w3.org/2000/svg">
<rect x="65" y="61" width="26" height="14" rx="7" fill="#1BA7A6"/>
<rect x="65" y="38" width="26" height="14" rx="7" fill="#1BA7A6"/>
<rect x="65" y="15" width="26" height="14" rx="7" fill="#1BA7A6"/>
<path d="M21.5 9L35.7894 28.5H7.21058L21.5 9Z" fill="#1BA7A6"/>
<ellipse cx="22.5" cy="69" rx="11.5" ry="11" fill="#1BA7A6"/>
<path d="M22.0001 35L24.6942 42.2553H33.4128L26.3593 46.7394L29.0535 53.9947L22.0001 49.5106L14.9467 53.9947L17.6408 46.7394L10.5874 42.2553H19.3059L22.0001 35Z" fill="#1BA7A6"/>
<path d="M32.5 26.5L65.229 45.5555" stroke="#1BA7A6"/>
<line x1="31.6516" y1="62.6414" x2="66.6516" y2="28.6414" stroke="#1BA7A6"/>
<path d="M29.6154 43.0769L64.5385 67.6923" stroke="#1BA7A6"/>
</svg>
