<svg xmlns="http://www.w3.org/2000/svg" width="54" height="84" viewBox="0 0 41 63"><path style="stroke:none;fill-rule:nonzero;fill:#be3e53;fill-opacity:1" d="M1.02 46.066c.046-1.28.472-2.273 1.273-2.968.8-.696 1.89-1.043 3.262-1.043.91 0 1.691.156 2.332.468.656.313 1.148.739 1.476 1.278.34.539.512 1.144.512 1.816 0 .793-.2 1.442-.602 1.946-.402.492-.867.828-1.402 1.007v.07c.691.231 1.238.606 1.64 1.137.4.528.598 1.203.598 2.032 0 .746-.175 1.406-.527 1.98-.34.566-.844 1.008-1.512 1.332-.656.324-1.441.488-2.351.488-1.457 0-2.625-.355-3.496-1.062-.864-.707-1.32-1.777-1.368-3.203H3.88c.012.527.164.945.457 1.258.289.3.715.449 1.273.449.477 0 .84-.13 1.094-.395.27-.277.402-.636.402-1.082 0-.574-.187-.988-.566-1.238-.363-.266-.953-.398-1.766-.398h-.585v-2.5h.585c.618 0 1.118-.102 1.493-.31.39-.214.582-.593.582-1.132 0-.434-.121-.77-.364-1.008-.242-.242-.578-.36-1-.36-.464 0-.808.138-1.039.415-.218.273-.347.617-.383 1.023Zm14.894 0c.047-1.28.473-2.273 1.274-2.968.8-.696 1.89-1.043 3.261-1.043.91 0 1.692.156 2.332.468.657.313 1.149.739 1.477 1.278.34.539.512 1.144.512 1.816 0 .793-.2 1.442-.602 1.946-.402.492-.867.828-1.402 1.007v.07c.691.231 1.238.606 1.64 1.137.399.528.598 1.203.598 2.032 0 .746-.176 1.406-.527 1.98-.34.566-.844 1.008-1.512 1.332-.656.324-1.442.488-2.352.488-1.457 0-2.625-.355-3.496-1.062-.863-.707-1.32-1.777-1.367-3.203h3.023c.012.527.165.945.457 1.258.29.3.715.449 1.274.449.476 0 .84-.13 1.094-.395.27-.277.402-.636.402-1.082 0-.574-.188-.988-.566-1.238-.364-.266-.954-.398-1.766-.398h-.586v-2.5h.586c.617 0 1.117-.102 1.492-.31.39-.214.582-.593.582-1.132 0-.434-.12-.77-.363-1.008-.242-.242-.578-.36-1-.36-.465 0-.809.138-1.04.415-.218.273-.347.617-.382 1.023Zm14.895 0c.046-1.28.472-2.273 1.273-2.968.8-.696 1.89-1.043 3.262-1.043.91 0 1.691.156 2.332.468.656.313 1.148.739 1.476 1.278.34.539.512 1.144.512 1.816 0 .793-.2 1.442-.602 1.946-.402.492-.867.828-1.402 1.007v.07c.692.231 1.238.606 1.64 1.137.4.528.598 1.203.598 2.032 0 .746-.175 1.406-.527 1.98-.34.566-.844 1.008-1.512 1.332-.656.324-1.441.488-2.351.488-1.457 0-2.625-.355-3.496-1.062-.864-.707-1.32-1.777-1.367-3.203h3.023c.012.527.164.945.457 1.258.29.3.715.449 1.273.449.477 0 .84-.13 1.094-.395.27-.277.403-.636.403-1.082 0-.574-.188-.988-.567-1.238-.363-.266-.953-.398-1.766-.398h-.585v-2.5h.586c.617 0 1.117-.102 1.492-.31.39-.214.582-.593.582-1.132 0-.434-.121-.77-.364-1.008-.242-.242-.578-.36-1-.36-.464 0-.808.138-1.039.415-.218.273-.347.617-.382 1.023ZM10.008 35.035a68.773 68.773 0 0 0 3.371-2.844 11.434 11.434 0 0 0 1.75-1.964c.473-.684.71-1.348.71-1.997 0-.492-.116-.875-.347-1.152-.23-.277-.574-.414-1.039-.414-.46 0-.824.176-1.09.523-.258.336-.383.817-.383 1.438H9.973c.023-1.02.242-1.871.656-2.555.426-.683.976-1.187 1.656-1.511a5.369 5.369 0 0 1 2.297-.489c1.445 0 2.535.367 3.262 1.102.742.73 1.113 1.683 1.113 2.86 0 1.284-.445 2.48-1.332 3.581-.887 1.094-2.016 2.16-3.39 3.203h4.921v2.504h-9.148Zm14.273 0c.414-.324.602-.476.563-.45a69.34 69.34 0 0 0 2.808-2.394 11.601 11.601 0 0 0 1.75-1.964c.473-.684.711-1.348.711-1.997 0-.492-.117-.875-.347-1.152-.23-.277-.578-.414-1.04-.414-.46 0-.824.176-1.093.523-.254.336-.383.817-.383 1.438h-3.008c.028-1.02.246-1.871.656-2.555.426-.683.98-1.187 1.66-1.511.692-.325 1.458-.489 2.297-.489 1.446 0 2.532.367 3.262 1.102.738.73 1.11 1.683 1.11 2.86 0 1.284-.442 2.48-1.329 3.581-.886 1.094-2.02 2.16-3.39 3.203h4.922v2.504H24.28ZM17.566 9.223V6.359h5.047V19.5h-3.242V9.223Zm0 0"/></svg>