<?xml version="1.0" encoding="UTF-8"?>
<svg version="1.1" xmlns="http://www.w3.org/2000/svg" width="73" height="71">
<path d="M0 0 C4.5 4.5 4.5 4.5 6 8 C6.66 8 7.32 8 8 8 C9.36277086 6.21034453 9.36277086 6.21034453 10.625 4 C11.29402344 2.88625 11.29402344 2.88625 11.9765625 1.75 C12.31429687 1.1725 12.65203125 0.595 13 0 C14.396478 0.45636536 15.7921508 0.91519488 17.1875 1.375 C18.35345703 1.75785156 18.35345703 1.75785156 19.54296875 2.1484375 C22.05744968 3.01991102 24.52912126 4.0116485 27 5 C26.67 8.63 26.34 12.26 26 16 C29.63 15.67 33.26 15.34 37 15 C37.83986084 16.93467942 38.67168027 18.87285129 39.5 20.8125 C40.19609375 22.43091797 40.19609375 22.43091797 40.90625 24.08203125 C42 27 42 27 42 30 C40.25 31.38671875 40.25 31.38671875 38 32.6875 C37.2575 33.12449219 36.515 33.56148437 35.75 34.01171875 C34.88375 34.50091797 34.88375 34.50091797 34 35 C36.44038613 37.55489105 38.92115427 39.25254702 42 41 C41.42554084 46.60097679 39.36986537 50.95448018 37 56 C33.37 55.67 29.74 55.34 26 55 C26.495 60.445 26.495 60.445 27 66 C22.38 67.65 17.76 69.3 13 71 C11.76302083 68.91666667 10.52604167 66.83333333 9.2890625 64.75 C8.65097656 63.88375 8.65097656 63.88375 8 63 C7.34 63 6.68 63 6 63 C4.63722914 64.78965547 4.63722914 64.78965547 3.375 67 C2.92898437 67.7425 2.48296875 68.485 2.0234375 69.25 C1.68570312 69.8275 1.34796875 70.405 1 71 C-0.396478 70.54363464 -1.7921508 70.08480512 -3.1875 69.625 C-4.35345703 69.24214844 -4.35345703 69.24214844 -5.54296875 68.8515625 C-8.05744968 67.98008898 -10.52912126 66.9883515 -13 66 C-12.67 62.37 -12.34 58.74 -12 55 C-17.445 55.495 -17.445 55.495 -23 56 C-23.83986084 54.06532058 -24.67168027 52.12714871 -25.5 50.1875 C-25.9640625 49.10855469 -26.428125 48.02960937 -26.90625 46.91796875 C-28 44 -28 44 -28 41 C-26.25 39.61328125 -26.25 39.61328125 -24 38.3125 C-23.2575 37.87550781 -22.515 37.43851563 -21.75 36.98828125 C-20.88375 36.49908203 -20.88375 36.49908203 -20 36 C-22.44038613 33.44510895 -24.92115427 31.74745298 -28 30 C-27.42554084 24.39902321 -25.36986537 20.04551982 -23 15 C-17.06 15.99 -17.06 15.99 -11 17 C-11.33 15.948125 -11.66 14.89625 -12 13.8125 C-13 10 -13 10 -13 5 C-8.71 3.35 -4.42 1.7 0 0 Z M-7 9 C-6.88140625 9.60328125 -6.7628125 10.2065625 -6.640625 10.828125 C-5.6097561 17.2195122 -5.6097561 17.2195122 -7.3125 20.625 C-11.52169861 22.77854347 -15.45880259 21.79730947 -20 21 C-20.66 22.98 -21.32 24.96 -22 27 C-21.4946875 27.27972656 -20.989375 27.55945313 -20.46875 27.84765625 C-16.7626882 30.13453169 -15.21663868 31.13344528 -14.125 35.5 C-15.21663868 39.86655472 -16.7626882 40.86546831 -20.46875 43.15234375 C-20.9740625 43.43207031 -21.479375 43.71179687 -22 44 C-21.34 45.98 -20.68 47.96 -20 50 C-19.32453125 49.86980469 -18.6490625 49.73960938 -17.953125 49.60546875 C-10.7130081 48.48597091 -10.7130081 48.48597091 -7.3125 50.9375 C-5.51244131 55.13763694 -6.09630975 57.55685629 -7 62 C-4.32314652 64.20376008 -4.32314652 64.20376008 -2 63.9375 C0.26886242 63.12918473 0.26886242 63.12918473 1.25 60.4375 C3 58 3 58 6.9375 57.3125 C9.05859375 57.42578125 9.05859375 57.42578125 11 58 C13.5 61 13.5 61 15 64 C17.475 63.505 17.475 63.505 20 63 C20.74095357 60.11851388 21.09320696 58.34740778 20.3125 55.4375 C20 53 20 53 21.3125 50.625 C25.478441 48.10605893 29.35198668 49.18393659 34 50 C34.66 48.02 35.32 46.04 36 44 C35.4946875 43.72027344 34.989375 43.44054688 34.46875 43.15234375 C30.7626882 40.86546831 29.21663868 39.86655472 28.125 35.5 C29.21663868 31.13344528 30.7626882 30.13453169 34.46875 27.84765625 C34.9740625 27.56792969 35.479375 27.28820312 36 27 C35.34 25.02 34.68 23.04 34 21 C32.98679687 21.19529297 32.98679687 21.19529297 31.953125 21.39453125 C24.7130081 22.51402909 24.7130081 22.51402909 21.3125 20.0625 C19.51244131 15.86236306 20.09630975 13.44314371 21 9 C18.32314652 6.79623992 18.32314652 6.79623992 16 7.0625 C13.73113758 7.87081527 13.73113758 7.87081527 12.75 10.5625 C11 13 11 13 7.0625 13.6875 C4.9296875 13.57421875 4.9296875 13.57421875 3 13 C0.6875 10 0.6875 10 -1 7 C-4.18490007 6.7226499 -4.18490007 6.7226499 -7 9 Z " fill="#F8D879" transform="translate(29,0)"/>
<path d="M0 0 C3.22676998 2.70148184 5.38946413 4.60583547 6.15625 8.8359375 C6.2510601 17.29773868 6.2510601 17.29773868 3.5 20.8125 C-0.69795313 24.45072605 -3.31288628 25.48010751 -8.8125 25.125 C-12.97202358 24.54363564 -15.33691217 23.31575716 -18.3125 20.25 C-21.28867913 15.7857313 -21.05256072 11.48275258 -20.3125 6.25 C-18.71024634 3.00719179 -16.37390793 1.05520602 -13.5 -1.125 C-8.35000258 -2.59642784 -4.65112529 -2.45719826 0 0 Z M-14.3125 6.25 C-15.85836876 9.34173752 -15.60609521 11.84429552 -15.3125 15.25 C-13.25752229 18.25342896 -11.83616286 19.08287356 -8.375 20.1875 C-4.71377319 20.26221891 -3.1820326 19.46363944 -0.3125 17.25 C1.23336876 14.15826248 0.98109521 11.65570448 0.6875 8.25 C-1.36747771 5.24657104 -2.78883714 4.41712644 -6.25 3.3125 C-9.91122681 3.23778109 -11.4429674 4.03636056 -14.3125 6.25 Z " fill="#F9D979" transform="translate(43.3125,23.75)"/>
</svg>
