<svg width="436" height="946" viewBox="0 0 436 946" fill="none" xmlns="http://www.w3.org/2000/svg">
<g filter="url(#filter0_d_744_528)">
<path d="M65.9475 697.573C40.7136 702.951 7.22536 724.906 1.47193 728.766C0.924964 729.133 0.613365 729.741 0.613365 730.4V936C0.613365 937.105 1.50879 938 2.61336 938H434C435.105 938 436 937.105 436 936V4.2406C436 3.13605 435.105 2.2406 434 2.2406H92.4396C70.5563 0.0344849 49.7406 -0.240784 33.2486 0.147278C30.7292 0.206604 30.8474 2.2406 33.3675 2.2406H92.4396C135.19 6.55035 182.015 18.2288 208.637 46.7249C225.527 64.804 210.696 93.175 243.656 99.6824C272.135 105.305 209.291 118.286 237.384 125.632C253.587 129.868 278.493 169.267 270.835 200.302C256.723 257.496 212.819 206.127 195.048 241.609C178.594 274.461 150.098 288.211 150.098 324.222C150.098 362.607 173.876 387.337 208.637 402.599C224.317 409.484 268.044 414.378 280.766 431.197C297.404 453.192 271.358 484.181 257.246 496.334C234.676 515.772 240.924 542.215 219.613 563.061C202.034 580.256 176.462 573.1 165.778 595.365C149.093 630.134 223.214 639.49 219.613 677.979C217.52 700.353 214.41 720.54 194.002 729.347C165.778 741.528 116.331 686.834 65.9475 697.573Z" fill="#2BCB9A"/>
</g>
<defs>
<filter id="filter0_d_744_528" x="0.613281" y="0" width="435.387" height="946" filterUnits="userSpaceOnUse" color-interpolation-filters="sRGB">
<feFlood flood-opacity="0" result="BackgroundImageFix"/>
<feColorMatrix in="SourceAlpha" type="matrix" values="0 0 0 0 0 0 0 0 0 0 0 0 0 0 0 0 0 0 127 0" result="hardAlpha"/>
<feOffset dy="8"/>
<feComposite in2="hardAlpha" operator="out"/>
<feColorMatrix type="matrix" values="0 0 0 0 0.172622 0 0 0 0 0.679167 0 0 0 0 0.525668 0 0 0 1 0"/>
<feBlend mode="normal" in2="BackgroundImageFix" result="effect1_dropShadow_744_528"/>
<feBlend mode="normal" in="SourceGraphic" in2="effect1_dropShadow_744_528" result="shape"/>
</filter>
</defs>
</svg>
